<svg id="visual" viewBox="0 0 960 540" width="960" height="540" xmlns="http://www.w3.org/2000/svg" xmlns:xlink="http://www.w3.org/1999/xlink" version="1.1"><rect x="0" y="0" width="960" height="540" fill="#121212"></rect><path d="M0 265L22.8 275.3C45.7 285.7 91.3 306.3 137 312.3C182.7 318.3 228.3 309.7 274 312.5C319.7 315.3 365.3 329.7 411.2 333.2C457 336.7 503 329.3 548.8 330.3C594.7 331.3 640.3 340.7 686 340.2C731.7 339.7 777.3 329.3 823 323.5C868.7 317.7 914.3 316.3 937.2 315.7L960 315L960 541L937.2 541C914.3 541 868.7 541 823 541C777.3 541 731.7 541 686 541C640.3 541 594.7 541 548.8 541C503 541 457 541 411.2 541C365.3 541 319.7 541 274 541C228.3 541 182.7 541 137 541C91.3 541 45.7 541 22.8 541L0 541Z" fill="#323232"></path><path d="M0 304L22.8 313.5C45.7 323 91.3 342 137 341.2C182.7 340.3 228.3 319.7 274 318C319.7 316.3 365.3 333.7 411.2 339.7C457 345.7 503 340.3 548.8 334.2C594.7 328 640.3 321 686 319.7C731.7 318.3 777.3 322.7 823 334C868.7 345.3 914.3 363.7 937.2 372.8L960 382L960 541L937.2 541C914.3 541 868.7 541 823 541C777.3 541 731.7 541 686 541C640.3 541 594.7 541 548.8 541C503 541 457 541 411.2 541C365.3 541 319.7 541 274 541C228.3 541 182.7 541 137 541C91.3 541 45.7 541 22.8 541L0 541Z" fill="#282828"></path><path d="M0 353L22.8 352.8C45.7 352.7 91.3 352.3 137 357.3C182.7 362.3 228.3 372.7 274 381.3C319.7 390 365.3 397 411.2 397.5C457 398 503 392 548.8 395.7C594.7 399.3 640.3 412.7 686 407.2C731.7 401.7 777.3 377.3 823 365.3C868.7 353.3 914.3 353.7 937.2 353.8L960 354L960 541L937.2 541C914.3 541 868.7 541 823 541C777.3 541 731.7 541 686 541C640.3 541 594.7 541 548.8 541C503 541 457 541 411.2 541C365.3 541 319.7 541 274 541C228.3 541 182.7 541 137 541C91.3 541 45.7 541 22.8 541L0 541Z" fill="#1e1e1e"></path><path d="M0 417L22.8 415.8C45.7 414.7 91.3 412.3 137 417.7C182.7 423 228.3 436 274 440.3C319.7 444.7 365.3 440.3 411.2 439C457 437.7 503 439.3 548.8 433.5C594.7 427.7 640.3 414.3 686 414.7C731.7 415 777.3 429 823 438.7C868.7 448.3 914.3 453.7 937.2 456.3L960 459L960 541L937.2 541C914.3 541 868.7 541 823 541C777.3 541 731.7 541 686 541C640.3 541 594.7 541 548.8 541C503 541 457 541 411.2 541C365.3 541 319.7 541 274 541C228.3 541 182.7 541 137 541C91.3 541 45.7 541 22.8 541L0 541Z" fill="#141414"></path><path d="M0 470L22.8 469.3C45.7 468.7 91.3 467.3 137 467.5C182.7 467.7 228.3 469.3 274 475C319.7 480.7 365.3 490.3 411.2 490.5C457 490.7 503 481.3 548.8 475.5C594.7 469.7 640.3 467.3 686 465.8C731.7 464.3 777.3 463.7 823 466.7C868.7 469.7 914.3 476.3 937.2 479.7L960 483L960 541L937.2 541C914.3 541 868.7 541 823 541C777.3 541 731.7 541 686 541C640.3 541 594.7 541 548.8 541C503 541 457 541 411.2 541C365.3 541 319.7 541 274 541C228.3 541 182.7 541 137 541C91.3 541 45.7 541 22.8 541L0 541Z" fill="#060606"></path></svg>